<svg viewBox="0 0 48 48" xmlns="http://www.w3.org/2000/svg" fill="#000000"><g id="SVGRepo_bgCarrier" stroke-width="0"></g><g id="SVGRepo_tracerCarrier" stroke-linecap="round" stroke-linejoin="round"></g><g id="SVGRepo_iconCarrier"> <title>text-justify-solid</title> <g id="Layer_2" data-name="Layer 2"> <g id="invisible_box" data-name="invisible box"> <rect width="48" height="48" fill="none"></rect> </g> <g id="Q3_icons" data-name="Q3 icons"> <g> <path d="M42,14H6a2,2,0,0,0,0,4H42a2,2,0,0,0,0-4Z"></path> <path d="M6,10H42a2,2,0,0,0,0-4H6a2,2,0,0,0,0,4Z"></path> <path d="M42,30H6a2,2,0,0,0,0,4H42a2,2,0,0,0,0-4Z"></path> <path d="M42,22H6a2,2,0,0,0,0,4H42a2,2,0,0,0,0-4Z"></path> <path d="M42,38H6a2,2,0,0,0,0,4H42a2,2,0,0,0,0-4Z"></path> </g> </g> </g> </g></svg>