<?xml version="1.0" encoding="utf-8"?>
<svg viewBox="0 0 128 128" fill="none" xmlns="http://www.w3.org/2000/svg">
  <defs>
    <clipPath id="clip_path_1">
      <rect width="122" height="122" />
    </clipPath>
  </defs>
  <g>
    <rect width="128" height="128" fill="#000000" fill-rule="evenodd" />
    <path d="M31.1358 69.75L11.7807 69.75L11.7807 17.3864L31.1102 17.3864Q39.1131 17.3864 44.9043 20.5185Q50.6955 23.6506 53.8403 29.5057Q56.9852 35.3608 56.9852 43.5426Q56.9852 51.7244 53.8531 57.5923Q50.721 63.4602 44.917 66.6051Q39.1131 69.75 31.1358 69.75ZM24.4369 58.9602L30.65 58.9602Q37.2722 58.9602 40.7878 55.4957Q44.3034 52.0313 44.3034 43.5426Q44.3034 35.0795 40.7622 31.6278Q37.221 28.1761 30.471 28.1761L24.4369 28.1761L24.4369 58.9602ZM64.3489 69.75L64.3489 17.3864L77.0051 17.3864L77.0051 38.4034L97.6386 38.4034L97.6386 17.3864L110.269 17.3864L110.269 69.75L97.6386 69.75L97.6386 48.7074L77.0051 48.7074L77.0051 69.75L64.3489 69.75Z" clip-path="url(#clip_path_1)" fill="#FFFFFF" transform="translate(3 20.432)" />
  </g>
</svg>