<svg fill="#000000" viewBox="0 0 24 24" id="chart-colum" data-name="Flat Color" xmlns="http://www.w3.org/2000/svg" class="icon flat-color"><g id="SVGRepo_bgCarrier" stroke-width="0"></g><g id="SVGRepo_tracerCarrier" stroke-linecap="round" stroke-linejoin="round"></g><g id="SVGRepo_iconCarrier"><rect id="secondary" x="9.5" y="2" width="5" height="20" rx="1" style="fill: #2ca9bc;"></rect><path id="primary" d="M7,12v9a1,1,0,0,1-1,1H3a1,1,0,0,1-1-1V12a1,1,0,0,1,1-1H6A1,1,0,0,1,7,12ZM21,6H18a1,1,0,0,0-1,1V21a1,1,0,0,0,1,1h3a1,1,0,0,0,1-1V7A1,1,0,0,0,21,6Z" style="fill: #000000;"></path></g></svg>