<?xml version="1.0" encoding="utf-8"?>
<svg  viewBox="0 0 128 128" fill="none" xmlns="http://www.w3.org/2000/svg">
  <defs>
    <clipPath id="clip_path_1">
      <rect width="122" height="122" />
    </clipPath>
  </defs>
  <g>
    <rect width="128" height="128" fill="#0F3FD1" fill-rule="evenodd" />
    <path d="M9.55145 78.4688L9.55145 19.5597L33.886 19.5597Q40.5017 19.5597 45.3197 22.1341Q50.1377 24.7085 52.7553 29.2963Q55.3728 33.8842 55.3728 39.9535Q55.3728 46.0515 52.6978 50.6106Q50.0227 55.1697 45.1184 57.6722Q40.2141 60.1747 33.4545 60.1747L23.7897 60.1747L23.7897 78.4688L9.55145 78.4688ZM23.7897 48.9567L30.8082 48.9567Q35.6118 48.9567 38.1143 46.4973Q40.6168 44.038 40.6168 39.9535Q40.6168 35.8402 38.1143 33.4384Q35.6118 31.0366 30.8082 31.0366L23.7897 31.0366L23.7897 48.9567ZM112.499 19.5597L112.499 78.4688L100.418 78.4688L76.9747 44.4695L76.6008 44.4695L76.6008 78.4688L62.3625 78.4688L62.3625 19.5597L74.6161 19.5597L97.8 53.5014L98.289 53.5014L98.289 19.5597L112.499 19.5597Z" clip-path="url(#clip_path_1)" fill="#FFFFFF" transform="translate(3 14.986)" />
  </g>
</svg>