<?xml version="1.0" encoding="utf-8"?>
<svg  viewBox="0 0 128 128" fill="none" xmlns="http://www.w3.org/2000/svg">
  <defs>
    <clipPath id="clip_path_1">
      <rect width="122" height="122" />
    </clipPath>
  </defs>
  <g>
    <rect width="128" height="128" fill="#000000" fill-rule="evenodd" />
    <path d="M73.4043 48.2493Q73.0314 44.1477 70.1044 41.8546Q67.1773 39.5614 61.7707 39.5614Q56.4014 39.5614 53.7168 41.5936Q51.0321 43.6257 50.9948 46.7578Q50.883 50.1509 53.9405 52.0712Q56.998 53.9915 62.1809 55.1101L68.7434 56.6016Q80.0413 59.0998 86.0632 64.7674Q92.085 70.435 92.1223 79.5703Q92.085 90.4581 84.0683 96.5732Q76.0516 102.688 61.7707 102.688Q47.378 102.688 38.7461 96.1816Q30.1141 89.6751 29.9277 76.2891L47.6017 76.2891Q47.9 81.8075 51.666 84.6227Q55.432 87.4379 61.547 87.4379Q67.1028 87.4379 70.2349 85.2379Q73.367 83.038 73.4043 79.533Q73.367 76.3264 70.4213 74.4061Q67.4756 72.4858 61.1741 71.0316L53.1947 69.1673Q43.3137 66.8928 37.5902 61.8031Q31.8666 56.7134 31.9039 48.0256Q31.8666 40.9038 35.7072 35.5717Q39.5477 30.2397 46.3153 27.2754Q53.0829 24.3111 61.808 24.3111Q70.6823 24.3111 77.2262 27.3127Q83.77 30.3143 87.3869 35.7022Q91.0037 41.0902 91.0783 48.2493L73.4043 48.2493Z" clip-path="url(#clip_path_1)" fill="#FFFFFF" transform="translate(3 0.463)" />
  </g>
</svg>