<?xml version="1.0" encoding="utf-8"?>
<svg  viewBox="0 0 128 128" fill="none" xmlns="http://www.w3.org/2000/svg">
  <defs>
    <clipPath id="clip_path_1">
      <rect width="122" height="122" />
    </clipPath>
  </defs>
  <g>
    <rect width="128" height="128" fill="#000000" fill-rule="evenodd" />
    <path d="M42.5903 33.0852Q42.3347 30.2727 40.3276 28.7003Q38.3205 27.1278 34.6131 27.1278Q30.9313 27.1278 29.0903 28.5213Q27.2494 29.9148 27.2239 32.0625Q27.1472 34.3892 29.2437 35.706Q31.3403 37.0227 34.8943 37.7898L39.3943 38.8125Q47.1415 40.5256 51.2707 44.4119Q55.4 48.2983 55.4256 54.5625Q55.4 62.0284 49.9028 66.2216Q44.4057 70.4148 34.6131 70.4148Q24.7437 70.4148 18.8247 65.9531Q12.9057 61.4915 12.7778 52.3125L24.8972 52.3125Q25.1017 56.0966 27.6841 58.027Q30.2665 59.9574 34.4597 59.9574Q38.2693 59.9574 40.417 58.4489Q42.5648 56.9403 42.5903 54.5369Q42.5648 52.3381 40.5449 51.0213Q38.525 49.7045 34.204 48.7074L28.7324 47.429Q21.9568 45.8693 18.0321 42.3793Q14.1074 38.8892 14.133 32.9318Q14.1074 28.0483 16.7409 24.392Q19.3744 20.7358 24.0151 18.7031Q28.6557 16.6705 34.6386 16.6705Q40.7239 16.6705 45.2111 18.7287Q49.6983 20.7869 52.1784 24.4815Q54.6585 28.1761 54.7097 33.0852L42.5903 33.0852ZM61.8432 69.75L61.8432 17.3864L74.4994 17.3864L74.4994 38.4034L95.133 38.4034L95.133 17.3864L107.764 17.3864L107.764 69.75L95.133 69.75L95.133 48.7074L74.4994 48.7074L74.4994 69.75L61.8432 69.75Z" clip-path="url(#clip_path_1)" fill="#FFFFFF" transform="translate(3 20.432)" />
  </g>
</svg>