<?xml version="1.0" encoding="utf-8"?>
<svg  viewBox="0 0 24 24" fill="none" xmlns="http://www.w3.org/2000/svg">
  <g>
    <path d="M7 0L18 0.000659943M7 6L18 6.0007M7 12L18 12.0007M4 14L0 14C0 14 3.41274 11.0139 3.41274 11.0139C3.78593 10.6873 4 10.2156 4 9.7197C4 8.7699 3.23008 8 2.28033 8C2.28033 8 2 8 2 8C1.06808 8 0.28503 8.6374 0.06301 9.5" fill="none" stroke-width="2" stroke="#000000" stroke-linecap="round" stroke-linejoin="round" transform="translate(3 6)" />
    <path d="M0.758523 11.625L0.758523 2.89773L4.2017 2.89773Q5.68892 2.89773 6.50923 3.6733Q7.32955 4.44886 7.32955 5.74858Q7.32955 6.64347 6.93111 7.27841Q6.53267 7.91335 5.78693 8.23295L7.64063 11.625L5.60369 11.625L3.95028 8.53125L2.60369 8.53125L2.60369 11.625L0.758523 11.625ZM2.60369 7.0483L3.85653 7.0483Q5.42898 7.0483 5.42898 5.74858Q5.42898 4.40625 3.84801 4.40625L2.60369 4.40625L2.60369 7.0483Z" fill="#000000" transform="translate(1 0)" />
  </g>
</svg>